<svg xmlns="http://www.w3.org/2000/svg" viewBox="0 0 32 32"><path fill="#231f20" d="m26.82 16.78-1.41-4.35a3 3 0 0 0-2.86-2.07H22a6 6 0 0 0-12 0h-.55a3 3 0 0 0-2.86 2.07l-1.41 4.35A2.84 2.84 0 0 0 5.05 18l.75 6.79a3 3 0 0 0 3 2.67h14.42a3 3 0 0 0 3-2.67L27 18a2.84 2.84 0 0 0-.18-1.22ZM16 6.5a4 4 0 0 1 4 3.86h-8a4 4 0 0 1 4-3.86Zm8.21 18.11a1 1 0 0 1-1 .89H8.78a1 1 0 0 1-1-.89L7 17.82a1 1 0 0 1 0-.42l1.5-4.35a1 1 0 0 1 .95-.69H10v3.14a1 1 0 0 0 2 0v-3.14h8v3.14a1 1 0 0 0 2 0v-3.14h.55a1 1 0 0 1 .95.69l1.42 4.35a1 1 0 0 1 0 .42Z"/></svg>